<svg width="25" height="25" viewBox="0 0 25 25" fill="none" xmlns="http://www.w3.org/2000/svg">
<path fill-rule="evenodd" clip-rule="evenodd" d="M22.3505 3.97848C22.447 3.6311 22.349 3.25867 22.0941 3.00373C21.8392 2.74879 21.4667 2.65083 21.1193 2.74732L3.11935 7.74732C2.7503 7.84983 2.47223 8.15414 2.40331 8.53092C2.3344 8.9077 2.48676 9.29073 2.79563 9.51724L9.35562 14.3279L8.67978 15.0037C8.28926 15.3943 8.28926 16.0274 8.67978 16.418C9.0703 16.8085 9.70347 16.8085 10.094 16.418L10.7698 15.7421L15.5806 22.3022C15.8071 22.6111 16.1901 22.7634 16.5669 22.6945C16.9437 22.6256 17.248 22.3475 17.3505 21.9785L22.3505 3.97848ZM15.9749 19.4579L12.2007 14.3113L19.406 7.10602L15.9749 19.4579ZM10.7865 12.8971L17.9918 5.69181L5.6399 9.12289L10.7865 12.8971Z" fill="white"/>
</svg>
