<svg width="261" height="320" viewBox="0 0 261 320" fill="none" xmlns="http://www.w3.org/2000/svg">
<path d="M261 189.5C261 261.573 202.573 320 130.5 320C58.4268 320 0 261.573 0 189.5C0 117.427 58.4268 59 130.5 59C202.573 59 261 117.427 261 189.5Z" fill="#5BBA6F"/>
<path d="M201.25 224C201.25 233.167 198.833 241.667 194 249.5C189.333 257.167 182.333 263.5 173 268.5C163.833 273.333 152.917 276 140.25 276.5V296.75H124.25V276.25C106.583 274.75 92.3333 269.5 81.5 260.5C70.6667 251.333 64.9167 238.917 64.25 223.25H109.75C110.75 233.25 115.583 239.667 124.25 242.5V203C111.25 199.667 100.833 196.417 93 193.25C85.3333 190.083 78.5833 185 72.75 178C66.9167 171 64 161.417 64 149.25C64 134.083 69.5833 121.917 80.75 112.75C92.0833 103.583 106.583 98.4167 124.25 97.25V77H140.25V97.25C157.75 98.5833 171.583 103.667 181.75 112.5C191.917 121.333 197.583 133.583 198.75 149.25H153C152 140.25 147.75 134.417 140.25 131.75V170.5C154.083 174.333 164.75 177.75 172.25 180.75C179.75 183.75 186.417 188.75 192.25 195.75C198.25 202.583 201.25 212 201.25 224ZM109.25 147.25C109.25 151.417 110.5 154.917 113 157.75C115.667 160.583 119.417 163.083 124.25 165.25V130.5C119.583 131.333 115.917 133.167 113.25 136C110.583 138.667 109.25 142.417 109.25 147.25ZM140.25 243.25C145.25 242.417 149.167 240.417 152 237.25C155 234.083 156.5 230.167 156.5 225.5C156.5 221.167 155.083 217.667 152.25 215C149.583 212.167 145.583 209.75 140.25 207.75V243.25Z" fill="#F2FFF5"/>
<rect x="201.977" y="38" width="26.2326" height="94" fill="#054A29"/>
<rect x="261" y="70.7907" width="26.2326" height="94" transform="rotate(90 261 70.7907)" fill="#054A29"/>
</svg>
