<svg width="829" height="836" viewBox="0 0 829 836" fill="none" xmlns="http://www.w3.org/2000/svg">
<path d="M562.81 839.328C564.003 849.487 560.817 852.08 537.595 857.615C528.499 859.783 521.429 855.036 519.552 847.403C508.251 801.477 500.847 625.105 322.043 515.327C321.946 515.266 290.234 496.442 290.137 496.385C266.638 482.568 165.569 551.019 143.41 565.695C129.862 574.671 51.835 636.32 27.2719 598.342C10.3014 572.106 46.3416 520.796 62.0912 491.072C114.182 392.759 97.3776 377.131 140.576 313.667C158.522 287.305 195.422 305.521 216.628 321.804C309.114 392.816 291.635 442.802 371.6 516.072C407.168 548.662 467.346 608.025 493.99 650.322C543.81 729.423 566.089 838.913 562.806 839.323L562.81 839.328ZM52.7321 603.725C88.7213 605.833 129.871 563.427 206.765 519.146C255.124 491.298 271.632 493.41 276.644 489.238C273.537 486.051 258.582 480.456 231.518 457.544C199.279 430.253 137.552 366.439 139.11 325.844C139.549 314.412 113.368 377.296 110.718 387.375C81.0361 500.43 15.2306 554.395 30.7954 592.402C35.4473 603.758 43.2342 603.169 52.7321 603.725ZM165.745 305.483C160.136 306.101 157.315 305.912 151.734 309.985C138.574 319.598 145.63 342.533 153.491 356.968C164.866 377.843 188.551 407.359 204.966 423.879C300.227 519.763 317.886 476.887 426.067 598.705C429.368 602.419 444.961 621.569 462.407 651.411C465.737 657.105 465.459 648.36 478.347 644.419C483.526 642.835 483.179 642.171 482.185 640.686C431.87 565.869 354.629 520.824 317.16 458.246C291.321 415.092 238.389 314.978 165.745 305.483ZM485.981 647.63C477.463 648.455 473.773 651.439 467.859 657.648C466.324 659.26 467.008 659.444 472.687 670.376C474.222 673.332 475.244 660.552 491.941 657.648C493.671 657.346 493 656.945 487.877 648.813C487.364 647.993 486.716 647.408 485.981 647.63Z" fill="#3FA34D"/>
<path d="M180.653 415.902C170.785 413.583 167.21 411.353 168.343 413.135C182.59 435.505 182.673 435.236 181.651 436.33C179.076 439.078 159.414 409.805 159.35 409.706C158.263 408.098 119.869 391.777 121.173 388.85C121.779 387.492 123.087 388.69 123.897 388.977C163.608 403.054 155.757 410.149 136.372 369.823C135.004 366.975 135.818 364.265 137.857 367.371C166.619 411.179 157.805 401.833 178.378 411.895C183.33 414.318 182.216 414.856 180.653 415.902Z" fill="#3FA34D"/>
<path d="M39.1137 573.865C54.7061 576.373 52.4362 578.108 43.9186 564.422C40.0575 558.218 39.7472 549.93 41.9067 553.037C60.8885 580.394 57.2822 577.052 66.6228 578.556C80.435 580.776 81.3644 581.031 82.8488 580.705C83.3389 580.597 84.051 581.314 83.3297 581.941C79.3109 585.415 67.5893 582.916 65.5866 583.633C66.4051 585.995 75.9677 591.063 75.0336 593.274C74.3261 594.947 72.3475 594.457 70.7244 593.722C64.2322 590.775 62.6087 588.399 56.8424 582.704C54.7709 580.663 34.5086 579.975 35.0866 575.751C35.4658 572.983 39.0217 574.586 39.1095 573.86L39.1137 573.865Z" fill="#3FA34D"/>
<path d="M289.522 426.43L289.49 426.368C218.857 306.073 137.621 291.656 156.954 338.3C165.495 358.901 165.537 364.045 193.212 397.648C209.956 417.977 233.164 439.347 255.304 454.81C265.033 461.608 292.209 479.423 301.878 472.408C308.684 467.468 304.527 451.995 289.522 426.43ZM161.158 321.177C164.825 313.804 198.169 323.077 237.515 363.955C274.785 402.664 302.109 455.748 300.712 463.621C300.606 464.535 300.583 467.024 298.202 468.076C287.058 473.007 242.5 439.12 227.522 426.232C190.909 394.702 152.316 338.922 161.158 321.177Z" fill="#3FA34D"/>
<path d="M202.099 354.489C204.208 377.136 200 370.833 216.323 380.243C237.991 392.741 228.678 390.61 228.896 370.47C228.928 367.491 231.619 367.425 232.285 369.961C239.374 397.016 228.008 386.452 246.957 398.855C251.521 401.844 251.864 402.132 252.252 402.74C252.742 403.513 251.882 404.324 249.82 403.258C233.159 394.655 235.947 395.291 236.202 399.506C237.09 414.337 236.165 399.506 237.21 414.328C237.307 415.69 236.882 414.931 253.806 424.996C259.651 428.471 261.741 430.493 261.56 428.443C261.181 424.049 260.034 412.367 260.21 409.698C260.335 407.817 262.744 407.129 263.433 408.963C265.098 413.385 265.69 423.177 265.639 427.537C265.56 434.67 263.845 430.399 285.804 446.503C287.797 447.964 286.313 449.351 284.671 448.455C277.925 444.782 276.584 443.849 267.359 438.427C264.293 436.622 267.673 449.105 264.751 449.204C261.204 449.327 263.863 436.268 260.122 434.203C240.081 423.153 237.561 419.891 237.372 422.102C237.066 425.586 237.802 426.265 236.451 426.882C235.628 427.259 235.124 428.065 233.913 420.169C233.423 416.991 221.326 413.319 215.222 408.972C214.228 408.265 210.732 401.533 231.781 412.301C234.001 413.437 232.174 411.523 231.323 394.4C231.245 392.816 205.267 379.093 204.652 378.782C203.149 378.027 205.207 396.488 204.272 396.62C202.122 396.917 201.789 394.381 200.083 378.692C199.399 372.417 178.216 368.033 179.714 363.823C181.379 359.142 199.274 372.639 199.084 369.461C197.942 350.048 197.285 349.468 195.158 348.935C195.034 348.902 173.374 338.366 171.927 337.659C170.734 337.079 167.696 335.655 168.047 334.382C168.894 331.341 175.501 334.901 195.861 344.41C197.97 345.395 194.728 338.446 197.364 336.98C198.83 336.164 199.819 338.243 200.06 339.261C201.544 345.465 200.615 346.814 203.403 348.275C230.833 362.649 230.19 362.847 229.585 364.719C229.136 366.114 203.63 352.702 202.76 352.669C201.891 352.636 202.095 353.786 202.095 354.493L202.099 354.489Z" fill="#3FA34D"/>
<path d="M199.685 592.868C197.609 617.312 197.928 666.482 198.737 672.955C199.648 680.257 205.41 657.2 205.017 596.432C204.957 587.06 200.018 588.951 199.685 592.868Z" fill="#3FA34D"/>
<path d="M289.994 606.742C279.141 576.015 277.342 566.388 273.102 568.259C271.363 569.028 271.715 571.508 272.311 573.337C294.192 640.827 311.468 667.529 289.994 606.742Z" fill="#3FA34D"/>
<path d="M30.7536 280.734C29.5606 282.714 39.4469 293.392 40.9312 294.938C88.2957 344.198 81.4105 325.793 79.3435 323.851C74.4188 319.221 36.543 284.18 30.749 280.734H30.7536Z" fill="#3FA34D"/>
<path d="M125.261 279.48C126.782 278.424 126.505 277.349 125.094 273.394C119.046 256.417 101.572 203.905 104.54 221.711C106.131 231.252 117.571 284.812 125.261 279.48Z" fill="#3FA34D"/>
<path d="M57.6011 394.636C56.9861 394.188 -3.8991 378.183 0.197839 381.238C9.17319 387.942 47.9599 400.392 56.6254 398.827C58.3826 398.511 59.4091 395.942 57.6011 394.636Z" fill="#3FA34D"/>
<path d="M138.634 597.908C131.434 597.908 87.3621 708.859 139.494 604.611C141.048 601.505 142.056 597.908 138.634 597.908Z" fill="#3FA34D"/>
<path d="M814.365 -1.59123L814.304 -1.64309C763.292 -54.4526 675.887 16.2666 709.819 81.1166C721.855 104.118 744.125 116.851 763.537 116.097C812.293 118.03 863.782 49.6628 814.365 -1.59123ZM805.223 76.0818C774.121 112.872 718.059 108.29 707.784 63.5841C699.137 25.8885 734.904 -17.7611 775.971 -15.7293C821.236 -13.4619 835.737 39.9748 805.227 76.0818H805.223Z" fill="#3FA34D"/>
<path d="M703.23 -38C660.873 -38 606.212 -1.37434 630.83 3.10897C635.644 3.99055 646.376 2.22268 651.051 1.51081C646.571 4.54683 634.058 11.0856 628.888 19.5383C619.381 35.1003 642.039 31.1591 659.079 23.8661C660.295 23.3428 660.091 23.4088 659.749 23.7624C656.235 27.4395 652.679 32.1208 656.008 36.0101C657.437 37.679 659.814 38.6077 661.904 38.3343C668.281 37.5093 669.571 36.9907 673.834 35.27C674.015 35.1993 678.204 33.4738 678.375 33.5587C679.064 33.9123 678.477 38.0231 682.99 39.1687C688.58 40.5877 703.558 34.511 701.186 31.2817C699.812 29.3865 688.261 37.3867 683.429 34.7326C682.084 33.9971 682.833 33.1721 683.929 31.1874C685.182 28.8962 683.226 27.3877 681.385 28.1844C674.949 30.9328 656.286 38.1646 659.088 31.4703C662.815 22.5744 679.009 16.8748 676.919 13.3343C674.727 9.61943 650.506 27.4678 633.221 26.1667C626.442 25.6575 636.828 15.9555 642.372 12.0049C657.211 1.42125 669.548 -2.7462 671.522 -4.28307C672.84 -5.30608 672.428 -7.3568 670.426 -7.76694C669.626 -7.94609 639.981 1.94925 629.665 -1.37434C623.607 -3.30721 652.822 -26.8129 693.334 -32.4701C739.524 -38.9193 728.389 -9.36981 734.377 -10.6804C738.197 -11.5761 738.59 -37.9953 703.239 -37.9953L703.23 -38Z" fill="#3FA34D"/>
<path d="M845.786 51.0521L845.693 51.0332C838.327 49.9725 835.816 56.9214 841.18 55.6627C845.467 54.6632 850.331 56.0351 854.507 59.4294C868.027 70.4185 866.118 92.4107 866.576 93.2546C866.959 95.4137 866.293 130.691 851.52 156.704C851.422 156.879 851.316 156.935 851.316 156.935C851.015 156.907 850.22 155.823 849.411 153.503C844.417 139.012 848.075 119.405 845.037 118.259C840.847 116.656 839.589 137.475 829.324 148.379C825.292 146.258 825.185 129.357 825.37 124.69C825.481 121.889 825.569 119.678 823.553 119.188C821.449 118.688 820.714 120.112 818.943 123.572C815.724 129.823 811.789 129.267 813.232 121.941C817.186 101.853 819.174 102.41 817.163 100.562C811.863 95.706 800.183 148.148 820.621 129.126C821.292 133.878 821.204 152.311 828.908 153.188C834.905 153.862 839.391 141.355 841.809 135.033C842.766 132.515 842.54 132.746 842.595 134.052C846.114 224.732 902.44 59.3351 845.776 51.0426L845.786 51.0521Z" fill="#3FA34D"/>
<path d="M700.196 208.629C697.954 206.276 695.101 205.635 694.19 205.885C693.131 205.989 693.089 207.54 693.764 208.007C695.873 209.454 700.636 216.935 697.422 216.629C692.312 216.12 689.709 216.2 691.045 221.716C694.088 229.07 694.051 232.276 693.001 234.063C690.467 238.367 675.064 234.317 672.655 223.328C672.253 221.504 671.384 220.669 669.844 220.631C666.246 220.429 664.443 229.876 654.358 229.136C645.29 228.467 643.316 217.784 649.748 210.642C654.51 205.362 661.553 204.296 655.111 199.775C649.979 196.174 647.024 194.764 645.16 190.309C643.339 185.925 648.397 181.258 653.868 184.982C658.871 188.395 659.689 191.742 660.762 192.996C662.163 194.646 663.907 192.888 663.782 190.917C663.634 188.555 660.198 183.195 655.366 180.503C644.804 174.639 629.998 187.74 650.187 202.25C650.732 202.642 650.797 202.797 650.797 202.797C650.663 203.349 648.027 204.419 645.036 208.681C633.115 225.666 650.52 244.005 668.526 228.226C668.618 228.146 668.776 228.009 668.873 227.939C668.919 227.995 668.988 228.108 669.099 228.32C677.95 245.971 703.59 244.415 698.115 226.967C697.51 225.03 696.451 221.895 696.381 221.541C700.141 221.178 703.318 221.268 703.489 216.964C703.6 214.074 702.342 210.882 700.196 208.629Z" fill="#3FA34D"/>
<path d="M718.054 114.234C710.891 122.173 676.317 175.883 668.738 199.195C668.701 199.308 668.706 199.431 668.752 199.539C669.006 200.114 669.196 200.704 669.682 200.708C670.135 200.708 670.306 200.331 670.856 199.105C679.711 179.442 720.227 117.086 720.704 116.27C721.989 114.064 719.483 112.659 718.054 114.234Z" fill="#3FA34D"/>
<path d="M724.477 126.609C722.309 128.801 680.044 192.294 684.867 192.878C686.657 193.095 725.319 131.215 726.859 128.594C727.992 126.661 725.749 125.313 724.477 126.609Z" fill="#3FA34D"/>
<path d="M856.726 80.401C857.082 71.2175 852.855 69.907 852.472 73.1033C852.273 74.7391 854.294 85.5679 848.685 90.7065C844.148 94.8739 842.618 87.6941 839.677 88.2928C838.66 88.4955 837.772 89.6081 836.81 91.8945C835.7 94.5298 833.444 97.4102 831.599 97.6742C830.683 97.7921 830.332 97.3867 829.633 96.7172C827.127 93.4974 828.075 90.8574 827.714 88.8868C827.664 88.5992 827.372 88.4248 827.09 88.5332C820.542 91.1544 826.091 107.504 834.563 101.927C839.816 98.471 840.297 94.6477 840.759 94.2328C841.221 94.2799 844.884 98.2871 849.804 95.5528C854.123 93.1674 857.225 86.3363 856.726 80.3916V80.401Z" fill="#3FA34D"/>
<path d="M709.204 -23.3349C708.39 -30.5807 688.211 -20.3601 685.635 -12.2611C683.744 -6.31162 692.312 -4.83604 692.497 -4.18075C692.687 -3.46418 685.695 3.34328 689.071 8.63745C691.193 11.961 696.58 12.852 699.165 12.852C699.803 12.852 700.811 12.8662 700.89 12.2486C701.362 8.41588 691.281 8.45359 692.173 4.75286C693.066 1.03798 697.824 -2.71461 696.71 -5.87791C695.632 -8.92807 690.287 -8.88564 689.755 -10.3471C689.468 -11.1438 690.717 -13.2558 691.189 -13.7225C703.697 -26.1587 709.532 -20.5251 709.204 -23.3349Z" fill="#3FA34D"/>
<path d="M805.579 10.7471C795.693 -4.55082 773.834 -14.2906 747.283 -1.55252L747.167 -1.48652C713.037 14.99 701.246 67.5168 737.702 84.5638C780.29 104.482 829.791 48.2164 805.579 10.7471ZM756.573 84.6392C730.747 84.8089 709.578 59.0405 725.522 27.2519C736.181 6.00452 759.828 -8.35999 783.735 -0.88309C823.909 11.6617 811.872 78.8595 756.568 84.6439L756.573 84.6392Z" fill="#3FA34D"/>
<path d="M782.916 26.3689C781.862 21.367 779.92 18.2461 776.424 15.922C774.473 14.9508 775.915 15.0451 777.187 10.3544C777.927 7.58707 774.732 6.12563 773.007 7.97364C770.561 10.6042 771.129 14.4794 767.883 13.1782C767.837 13.1594 767.786 13.15 767.731 13.1452C758.039 12.4994 751.26 20.3063 751.953 27.6182C753.327 41.978 769.927 40.3232 768.105 50.0441C767.398 53.8203 763.81 57.2523 759.579 58.214C756.966 58.808 751.921 58.9023 747.635 52.868C743.875 47.5833 743.533 45.5891 740.967 46.6828C738.197 47.8614 739.011 50.6381 740.532 53.2734C746.737 63.9325 750.686 61.5801 749.627 63.7722C748.291 66.5725 747.695 69.2267 750.534 70.3251C755.648 72.3098 754.127 63.5978 757.045 64.4699C759.68 65.2761 766.718 63.8806 770.829 58.3508C773.391 54.8999 774.473 50.4166 773.724 46.3623C771.62 35.0055 758.196 36.6366 757.969 26.5386C757.877 22.3193 762.519 17.9161 768.605 19.0853C776.225 20.5467 775.689 24.04 777.492 28.7072C778.926 32.4221 783.647 29.8622 782.916 26.3689Z" fill="#3FA34D"/>
<path d="M721.55 310.763C674.953 272.295 596.057 310.999 594.508 385.848C593.805 419.632 629.725 464.036 673.82 464.036C738.872 464.036 795.466 371.795 721.55 310.763ZM727.108 412.169C688.821 466.539 617.152 455.168 602.725 403.131C588.168 350.628 633.47 298.709 679.087 300.812C728.232 298.61 763.458 360.551 727.108 412.169Z" fill="#3FA34D"/>
<path d="M592.996 299.916C552.406 299.916 484.848 357.162 486.244 375.312C487.206 387.781 510.789 372.615 521.36 366.19C505.485 385.712 508.593 383.812 505.716 387.654C500.39 396.748 499.002 403.433 501.906 405.997C509.587 412.753 538.048 386.994 541.636 384.41C540.568 387.442 539.384 390.134 539.454 394.348C539.537 399.293 541.567 401.363 543.255 402.226C549.863 405.615 556.831 397.04 563.878 392.288C565.432 396.498 568.086 400.83 574.287 399.223C582.324 397.144 585.912 391.784 585.121 390.808C584.122 389.577 572.202 395.97 570.431 393.566C567.305 389.276 569.575 389.657 569.09 386.862C567.642 378.64 559.61 392.547 546.903 397.691C545.359 398.289 544.785 396.583 544.711 394.9C544.129 382.883 557.201 372.794 552.313 369.838C551.06 369.079 549.007 371.031 544.499 375.293C538.682 380.79 529.887 389.101 517.013 396.983C510.424 401.009 506.632 402.594 505.74 401.684C505.111 401.047 505.37 398.558 510.174 390.336C517.776 377.315 528.939 365.534 540.036 353.414C542.265 350.981 540.134 347.563 537.123 349.982C522.437 361.744 490.67 378.937 491.396 373.742C494.596 350.439 600.783 273.412 613.254 319.31C613.98 322.007 616.843 321.554 617.06 318.976C617.901 308.802 603.252 299.921 592.987 299.921L592.996 299.916Z" fill="#3FA34D"/>
<path d="M788.114 349.524C776.359 349.524 760.323 362.941 761.502 365.788C764.679 373.43 797.662 322.634 810.897 388.728C822.854 448.469 811.211 504.376 805.773 506.191C805.005 506.45 804.215 505.837 802.883 504.753C787.67 492.411 787.499 443.981 782.653 443.707C778.047 443.462 781.446 449.365 775.717 470.98C774.981 473.771 773.83 476.571 772.706 479.517C772.443 480.21 772.198 480.319 771.597 479.489C765.696 471.305 764.739 455.927 762.765 449.596C761.923 446.923 758.728 446.498 756.938 450.614C756.217 452.283 753.146 456.403 752.499 454.899C751.634 452.886 751.583 450.92 750.71 446.578C748.962 437.876 750.187 434.901 749.799 433.03C749.174 429.975 742.599 435.858 747.13 454.979C747.81 457.86 749.114 459.868 750.802 460.637C754.645 462.376 758.21 457.327 759.102 456.615C760.161 457.421 760.508 468.552 765.137 478.16C767.782 483.642 770.302 486.16 772.692 485.877C778.431 485.198 781.284 468.373 782.768 462.527C784.923 474.402 787.471 493.905 796.955 505.866C827.594 544.495 835.316 349.524 788.114 349.524Z" fill="#3FA34D"/>
<path d="M593.333 582.582C592.228 582.021 591.595 581.728 591.16 581.474C591.549 581.375 592.302 581.243 593.727 581.092C604.787 579.904 612.981 575.421 613.647 570.188C615.094 558.812 579.803 554.041 562.384 564.257C560.341 565.454 561.649 568.288 563.753 567.166C573.242 562.202 601.416 560.9 608.741 568.062C612.482 571.734 599.109 575.326 593.911 576.081C582.004 577.797 579.433 577.052 579.077 579.597C578.763 581.851 581.607 582.638 582.675 582.93C582.832 582.973 582.952 583.006 583.017 583.029C610.318 593.967 619.446 613.715 607.349 617.75C593.518 622.347 565.27 601.189 561.589 599.336C557.719 597.403 557.848 603.287 557.441 604.777C556.489 608.345 554.075 612.343 550.616 611.174C536.887 606.535 538.968 583.722 535.454 583.218C529.359 582.336 534.617 600.906 538.14 606.846C540.896 611.499 546.325 616.232 551.657 616.232C559.864 616.232 561.589 605.446 561.843 604.843C561.843 604.843 561.936 604.899 562.005 604.951C574.273 614.101 597.99 628.631 611.548 621.625C615.446 619.608 617.596 615.978 617.596 611.4C617.596 603.895 611.307 591.718 593.338 582.577L593.333 582.582Z" fill="#3FA34D"/>
<path d="M540.388 515.115C539.139 506.304 534.562 497.682 526.812 501.788C517.397 506.771 515.362 517.963 514.382 523.342C514.248 524.072 514.128 524.746 514.012 525.227C512.542 523.332 509.411 517.491 504.584 515.308C492.783 509.939 492.64 535.49 502.026 551.17C512.648 568.915 519.829 563.946 514.22 560C498.808 549.148 493.823 510.952 505.495 521.428C510.757 526.156 511.885 534.665 515.792 533.798C516.958 533.539 517.785 532.52 517.952 531.134C520.019 514.078 525.23 505.385 529.438 505.385C529.54 505.385 529.646 505.389 529.748 505.399C533.614 505.8 537.174 513.965 535.866 530.95C535.81 531.13 535.866 531.342 536.037 531.464C536.111 550.27 543.084 534.232 540.383 515.11L540.388 515.115Z" fill="#3FA34D"/>
<path d="M620.847 467.402C620.463 464.908 617.3 464.403 616.028 465.865C615.52 466.445 615.154 467.138 614.748 467.746C593.255 500.223 593.162 498.257 555.536 536.985C554.963 537.466 551.421 541.247 552.78 542.765C553.4 543.448 554.482 543.113 555.203 542.505C570.292 529.597 611.497 490.987 620.819 467.651C620.851 467.571 620.861 467.486 620.847 467.402Z" fill="#3FA34D"/>
<path d="M631.265 476.835C628.07 475.656 618.146 495.023 599.077 513.885C569.936 542.722 569.274 541.977 570.606 543.575C573.316 546.791 623.187 501.896 632.093 480.083C632.111 480.031 632.125 479.984 632.13 479.928C632.227 478.023 631.968 477.094 631.265 476.835Z" fill="#3FA34D"/>
<path d="M789.926 378.481C788.414 377.524 786.537 378.877 787.48 381.111C790.458 388.098 791.855 395.829 791.323 402.321C790 418.212 779.106 410.043 776.951 409.831C770.094 409.086 777.488 424.355 770.006 422.559C766.455 421.706 763.356 420.023 762.025 418.816C761.673 418.505 761.091 417.981 760.314 418.41C759.389 418.91 759.759 419.693 759.921 420.027C759.972 420.131 760.041 420.277 760.041 420.343C760.161 425.6 772.175 431.818 777.155 424.954C779.018 422.38 778.722 419.693 778.796 416.02C780.632 416.053 784.211 419 789.233 416.204C794.879 413.05 796.238 406.097 796.382 400.817C796.65 391.172 793.057 380.48 789.926 378.49V378.481Z" fill="#3FA34D"/>
<path d="M579.591 366.562C579.003 366.208 578.541 362.635 578.55 358.411C578.55 353.631 576.081 352.683 573.473 351.66C570.49 350.491 570.708 350.118 572.266 345.692C574.467 339.431 575.526 337.39 569.473 335.226C568.192 334.764 567.263 334.608 567.263 333.397C567.263 330.219 573.653 323.577 577.57 321.974C580.085 320.951 578.865 318.287 576.613 318.745C570.588 319.999 561.025 329.328 562.347 334.877C563.217 338.517 568.141 339.455 568.937 340.214C565.362 348.709 563.767 353.178 572.289 356.813C574.49 358.001 571.633 365.949 577.81 368.999C577.875 369.032 577.94 369.051 578.009 369.051H578.06C580.617 368.749 580.807 367.293 579.581 366.557L579.591 366.562Z" fill="#3FA34D"/>
<path d="M711.78 326.514C680.622 291.194 608.482 327.82 613.296 390.459C615.192 415.082 634.964 434.694 660.267 434.694C710.66 434.694 746.358 365.709 711.78 326.514ZM720.477 368.514C716.649 420.886 652.022 454.159 624.306 410.169C605.042 379.592 626.363 322.587 677.279 317.213C706.48 317.769 722.484 341.058 720.482 368.514H720.477Z" fill="#3FA34D"/>
<path d="M685.168 345.162C683.78 344.347 684.645 344.762 686.157 340.113C687.993 334.489 680.858 329.751 678.148 340.759C677.917 341.716 677.519 341.759 675.887 341.787C659.347 342.051 650.667 360.936 665.76 371.666C674.014 377.521 677.774 378.87 678.472 384.239C680.021 396.063 665.77 405.727 652.323 388.067C650.196 385.281 644.92 385.201 644.841 389.194C644.772 393.027 650.547 398.99 653.511 401.187C655.532 402.682 654.242 401.838 652.069 408.188C650.783 411.928 655.685 415.521 658.468 411.839C661.035 408.443 661.132 406.755 661.451 405.062C661.811 404.888 666.26 405.958 666.644 405.897C672.377 404.968 676.669 404.247 680.863 399.174C686.49 392.357 688.872 381.298 682.199 374.231C676.373 368.046 662.44 364.887 665.497 355.916C666.708 352.366 670.523 349.603 674.569 349.339C677.094 349.16 681.903 349.886 685.154 356.543C687.628 361.611 691.789 360.729 692.534 357.283C693.301 353.709 689.038 347.425 685.172 345.158L685.168 345.162Z" fill="#3FA34D"/>
<path d="M493.832 52.7219C471.803 33.9684 443.194 29.0419 424.619 32.4692C369.662 42.6097 344.396 97.8755 348.53 144.726C354.768 215.578 445.548 256.998 499.122 184.713C527.135 146.923 533.29 86.3208 493.832 52.7219ZM502.567 106.031C502.609 142.091 485.347 176.275 457.52 195.25C409.628 227.873 357.154 198.997 353.713 141.926C346.833 27.505 493.92 -6.23056 502.567 106.031Z" fill="#3FA34D"/>
<path d="M556.646 82.5064L556.577 82.5394C539.199 89.0782 523.218 111.169 527.621 113.088C529.443 113.88 533.817 107.29 537.965 102.721C546.08 93.7972 556.729 86.0044 568.71 86.358C621.059 88.3286 614.049 256.903 596.427 245.57C587.808 240.011 584.881 226.491 577.048 203.862C576.22 201.463 572.715 200.972 571.573 203.956C570.514 206.667 570.102 229.418 562.375 238.456C555.902 246.055 550.783 208.671 549.613 198.601C547.99 184.557 543.347 197.059 531.403 203.094C529.808 203.9 528.411 200.506 528.18 198.563C526.839 187.174 530.455 172.554 523.625 176.199C521.332 177.434 519.307 180.913 518.576 181.073C518.035 180.507 517.984 172.328 517.989 171.305C518.003 168.316 518.007 167.076 517.249 166.85C516.662 166.666 516.158 167.284 515.51 168.316C510.257 176.684 512.255 192.666 522.247 185.674C522.876 190.441 520.375 203.193 526.987 207.638C532.485 211.339 539.028 205.366 544.295 201.359C546.394 213.842 549.016 246.513 561.215 245.259C564.821 244.9 571.457 240.601 575.522 215.936C575.572 216.058 579.531 227.787 580.455 230.295C588.797 252.915 602.517 261.796 609.398 238.871C625.605 184.887 610.669 62.3669 556.651 82.497L556.646 82.5064Z" fill="#3FA34D"/>
<path d="M338.228 46.5424C293.67 45.0102 198.275 137.562 230.829 145.213C239.194 147.174 253.237 136.161 259.072 133.352C256.719 136.958 249.14 143.478 245.293 162.354C245.265 162.5 245.307 162.651 245.399 162.76C245.422 162.887 245.45 163.16 245.473 163.41C245.885 167.931 247.688 170.727 252.196 170.727C264.478 170.727 285.249 151.12 291.982 145.585C290.724 150.714 287.034 160.506 292.13 164.872C293.661 166.187 295.672 166.427 297.651 165.532C312.448 158.809 316.739 149.79 317.29 151.78C323.356 173.909 348.109 149.178 345.196 146.608C343.069 144.732 329.113 157.696 324.388 154.957C321.068 153.034 324.004 144.845 320.827 143.37C317.049 141.592 308.296 154.34 297.383 159.639C295.006 160.794 294.909 160.615 294.831 157.932C294.553 147.726 303.399 137.321 299.408 134.653C294.881 131.603 284.57 150.333 259.905 162.741C256.354 164.527 250.911 166.974 250.823 163.094C250.504 149.748 267.904 130.368 277.319 120.967C281.051 117.248 285.744 113.226 280.69 111.911C279.331 111.576 229.691 152.025 229.344 136.708C229.15 128.256 250.449 101.082 275.58 81.4141C288.19 71.5471 327.985 45.1564 344.859 53.0293C356.368 58.4036 361.422 78.0057 364.076 73.5035C366.476 69.4445 355.457 47.1364 338.237 46.5424H338.228Z" fill="#3FA34D"/>
<path d="M399.987 317.355C393.088 310.694 364.238 310.929 359.193 315.762C357.644 317.242 357.686 318.218 357.991 318.774C358.356 319.434 359.207 319.646 359.817 319.472C384.598 312.617 405.166 321.339 398.202 326.34C388.468 333.308 373.135 329.871 372.658 334.968C372.441 337.339 374.702 337.858 379.641 341.634C383.548 344.623 385.869 350.836 380.672 352.222C374.804 353.797 367.234 350.256 364.936 352.934C362.435 355.857 368.256 362.895 364.164 362.598C358.578 362.226 354.287 359.652 351.064 364.116C344.41 373.333 339.716 358.963 331.296 362.697C326.616 364.767 322.926 354.994 323.981 349.813C324.156 348.96 323.796 348.573 323.569 348.418C323.093 348.092 322.371 348.22 322.066 348.432C314.695 353.302 322.649 371.372 331.939 367.958C340.207 364.927 343.073 380.678 354.999 366.77C355.785 365.856 356.391 365.964 358.388 366.478C362 367.412 365.944 368.321 368.538 365.681C371.59 362.57 368.945 357.427 369.421 356.913C370.485 355.711 379.659 359.322 385.18 355.272C389.078 352.425 388.736 346.32 386.79 343.369C384.089 339.291 381.074 337.235 380.048 336.231C380.112 336.222 380.196 336.212 380.288 336.203C398.706 334.694 402.918 329.061 403.788 325.841C404.602 322.838 403.15 319.641 399.991 317.364L399.987 317.355Z" fill="#3FA34D"/>
<path d="M337.631 303.339C333.437 280.177 314.215 276.274 312.998 291.416C312.175 301.656 314.617 305.639 314.51 306.394C314.339 306.512 313.364 306.408 313.003 306.37C301.447 306.37 296.893 318 303.616 324.737C303.986 325.108 304.068 325.413 303.861 325.652C301.041 328.904 298.275 332.784 301.175 337.654C304.485 343.203 310.131 345.367 313.951 344.646C315.958 344.259 315.972 343.057 314.959 342.444C311.431 340.997 308.55 339.309 305.919 335.58C302.442 330.649 309.997 328.872 310.094 325.703C310.155 323.789 307.93 322.304 306.307 320.598C303.662 317.816 304.818 312.225 310.936 311.292C315.213 310.646 321.77 316.039 319.074 305.083C317.946 300.496 315.727 290.011 319.546 287.188C320.554 286.438 321.493 286.919 321.955 287.074C331.453 291.265 333.178 303.155 333.478 308.086C333.714 311.947 338.667 308.996 337.631 303.339Z" fill="#3FA34D"/>
<path d="M587.119 124.738C585.597 123.62 583.54 124.643 584.797 128.966C586.892 136.146 589.565 142.817 589.75 154.339C589.847 159.991 588.011 167.016 582.559 165.479C580.016 164.753 577.251 162.4 574.777 160.821C568.442 156.795 569.889 168.208 566.347 168.501C562.727 168.798 559.129 165.757 556.984 162.806C553.284 157.719 555.578 156.969 554.625 156.196C553.506 155.277 550.075 157.318 551.43 162.023L551.449 162.127C554.796 173.408 569.413 179.542 573.663 167.416C573.82 166.978 573.949 166.926 573.949 166.926C574.162 166.855 574.814 167.322 575.392 167.732C583.378 173.304 589.565 171.183 592.547 165.795C598.822 154.476 591.299 127.783 587.119 124.738Z" fill="#3FA34D"/>
<path d="M330.357 115.039C330.242 113.833 329.844 114.313 321.752 113.616C317.757 113.272 317.752 113.022 317.692 111.815C317.419 106.7 318.737 106.096 319.911 101.811C322.769 91.449 300.722 104.555 302.395 95.2959C303.709 88.0547 312.786 78.3338 318.552 74.3832C320.194 73.2612 319.491 71.4556 317.831 70.9323C312.014 69.1315 292.435 91.4537 297.549 100.416C300.883 106.266 312.397 103.617 313.276 103.673C313.211 104.262 309.53 113.404 314.178 117.302C316.86 119.556 321.28 119.485 324.753 119.084C328.831 118.603 330.487 116.44 330.357 115.039Z" fill="#3FA34D"/>
<path d="M386.059 224.6C385.37 222.479 385.019 221.612 384.32 221.612C383.433 221.612 382.984 223.012 381.333 228.212C365.889 276.849 346.56 306.761 351.906 305.399C354.874 304.593 380.39 257.898 386.078 224.836C386.091 224.761 386.082 224.676 386.059 224.6Z" fill="#3FA34D"/>
<path d="M397.8 238.744C397.629 236.085 395.367 235.124 394.184 238.131C390.42 247.735 389.707 251.954 382.642 267.964C371.604 293.025 370.92 291.997 371.905 293.43C372.039 293.718 372.427 293.789 372.654 293.548C382.235 283.478 398.23 245.542 397.8 238.744Z" fill="#3FA34D"/>
<path d="M477.426 69.0805C466.527 54.8999 450.218 48.446 432.549 48.446C363.799 48.446 337.876 166.167 398.345 192.044C413.928 198.71 430.894 196.72 445.871 188.744C486.11 167.308 504.375 104.131 477.426 69.0805ZM483.743 126.171C476.922 160.703 450.986 191.29 415.63 190.804C371.243 190.45 350.81 122.018 388.755 76.1096C426.52 30.4091 497.541 56.3189 483.743 126.171Z" fill="#3FA34D"/>
<path d="M450.431 93.9533C444.928 86.9855 439.772 86.8582 439.083 86.2124C438.635 84.8829 444.299 74.4643 438.94 72.2108C432.822 69.6557 433.053 85.2318 431.255 85.3873C407.2 87.3438 398.872 110.255 420.693 122.979C425.65 125.86 430.478 127.722 433.053 130.456C443.587 141.657 427.81 156.998 412.06 147.216C406.608 143.835 404.037 139.427 399.723 138.357C394.845 137.146 393.85 146.952 409.202 155.649C413.04 157.813 412.49 156.328 411.228 160.632C409.97 164.918 409.734 168.977 414.122 168.977C417.322 168.977 418.455 165.997 420.101 159.869C420.393 158.789 420.42 158.907 422.302 158.898C436.683 158.836 448.627 146.782 443.851 132.7C440.369 122.456 433.664 120.556 426.594 116.686C418.978 112.528 415.288 107.337 416.471 102.444C417.734 97.225 424.365 93.3593 432.24 93.3263C436.216 93.3121 444.752 95.8107 445.178 102.208C445.511 107.332 450.579 108.907 452.438 105.579C453.866 103.028 453.497 97.8567 450.422 93.9533H450.431Z" fill="#3FA34D"/>
<path d="M119.221 560.127C115.624 552.358 116.063 552.872 115.332 552.745C115.083 552.698 114.75 552.863 114.56 553.051C107.767 564.106 97.1228 569.65 86.0851 567.892C62.0583 564.059 52.4495 530.47 66.2524 509.892C76.2866 494.933 95.5644 490.176 108.179 503.112C108.456 503.4 108.9 503.438 109.219 503.207L114.643 499.289C115.143 498.926 115.078 498.148 114.532 497.875C105.742 493.467 98.2094 490.181 87.8746 491.176C46.1284 495.235 41.8881 573.176 94.1079 573.176C105.987 573.176 112.253 567.892 119.055 561.061C119.3 560.816 119.365 560.438 119.217 560.123L119.221 560.127Z" fill="#3FA34D"/>
<path d="M126.463 414.582C105.825 418.5 87.8469 446.281 96.1887 473.808C100.036 486.523 107.157 491.713 116.789 497.658C117.487 498.082 118.246 497.262 121.501 495.004C122.037 494.631 121.945 493.797 121.339 493.552C114.824 490.959 103.929 482.959 100.628 471.531C94.8061 451.378 104.105 429.329 121.802 421.338C143.438 411.561 167.464 425.524 163.714 464.724C163.649 465.389 164.352 465.855 164.926 465.516C172.283 461.155 172.435 461.518 172.528 460.778C176.153 430.257 155.876 409 126.463 414.582Z" fill="#3FA34D"/>
<path d="M129.316 450.076C116.419 451.029 123.073 435.778 132.067 441.322C133.154 441.987 134.638 443.882 136.918 442.472C138.828 441.284 137.292 439.097 135.623 437.555C133.94 436 132.331 435.599 131.156 435.302C129.922 434.995 129.769 434.892 129.811 434.378C130.287 428.476 123.527 427.325 124.146 434.92C124.211 435.688 124.091 435.745 123.318 436.117C114.061 440.587 115.98 453.471 125.006 454.843C130.56 455.687 136.58 454.022 135.859 461.523C135.276 467.614 128.021 468.981 122.777 465.855C120.849 464.7 119.873 464.12 118.449 465.563C117.127 466.883 117.968 468.349 119.314 469.65C122.962 473.177 128.141 472.399 128.793 472.823C129.006 473.007 129.21 473.832 129.399 475.284C129.612 476.976 130.911 477.797 132.201 477.797C135.188 477.797 134.814 474.478 134.43 471.484C134.43 471.484 134.481 471.437 134.652 471.343C144.589 466.115 142.458 449.105 129.311 450.072L129.316 450.076Z" fill="#3FA34D"/>
<path d="M193.868 445.169C159.118 462.513 154.184 467.793 99.5504 506.766C93.9506 510.759 92.6559 509.081 103.361 528.31C116.692 552.254 116.216 563.753 120.382 563.017C129.071 563.639 148.945 531.361 228.955 496.154C234.712 493.623 233.122 493.415 220.082 464.337C208.105 437.635 214.08 435.085 193.877 445.169H193.868ZM109.39 525.369C102.246 512.527 102.024 512.918 103.592 511.791C116.364 502.594 118.329 500.251 119.143 502.556C121.094 508.077 117.025 518.637 113.215 523.03C112.664 523.667 111.027 528.306 109.39 525.369ZM129.131 549.859C122.694 554.527 122.324 555.663 121.695 554.093C115.938 539.672 114.144 538.55 119.064 537.857C127.748 536.641 134.444 539.743 137.352 542.543C138.656 543.802 138.444 543.104 129.131 549.859ZM143.401 514.705C126.943 498.455 158.609 464.828 182.539 477.141C207.606 490.04 164.986 536.018 143.401 514.705ZM217.284 476.811C218.838 475.779 219.028 475.793 219.86 477.533C226.195 490.733 226.389 490.624 225.164 491.171C209.289 498.228 208.341 499.761 208.341 494.551C208.905 487.381 211.009 480.983 217.28 476.811H217.284ZM211.731 460.429C204.878 467.331 183.024 457.633 189.378 454.277C200.517 448.389 202.187 448.228 205.414 446.758C206.755 446.145 206.316 446.442 209.812 454.135C212.23 459.449 212.859 459.288 211.731 460.429Z" fill="#3FA34D"/>
<path d="M102.861 539.243C102.713 532.388 98.7551 526.755 92.0779 527.207C84.1753 527.74 83.3153 530.536 80.2218 527.061C75.7965 522.097 82.3442 515.789 88.1659 517.92C96.4477 520.942 94.8477 513.291 90.1312 512.687C84.3742 511.942 83.9303 512.239 83.8979 511.004C83.8147 508.279 80.3189 505.295 78.1085 508.529C76.2959 511.164 79.4495 513.555 77.9559 514.733C68.5413 522.187 75.4266 536.174 85.4562 533.963C86.4735 533.741 87.5001 533.557 88.5266 533.374C91.4722 532.85 94.4084 531.841 96.4847 534.552C99.6152 538.644 96.9193 546.475 90.0109 546.555C87.9347 546.588 86.0065 546.776 84.1707 545.994C81.1096 544.693 77.4704 548.662 83.1719 551.392C90.071 554.682 92.2397 549.398 94.1819 553.711C96.3552 558.529 102.186 555.96 99.0556 549.822C98.6117 548.95 99.0325 548.365 100.017 547.121C101.261 545.555 102.963 543.41 102.871 539.252L102.861 539.243Z" fill="#3FA34D"/>
<path d="M176.25 496.583C175.108 493.651 172.149 492.194 170.553 492.458C167.432 492.359 165.693 493.637 161.499 495.042C159.728 495.636 158.105 495.376 159.002 493.712C161.25 489.592 166.313 488.875 168.38 488.753C169.601 488.663 170.724 487.282 170.502 486.051C170.021 483.388 164.695 484.213 162.942 484.491C162.443 484.571 162.29 484.529 162.387 484.524C162.262 484.175 162.026 483.52 161.157 483.138C158.138 481.823 156.413 484.217 157.416 486.975C157.583 487.433 157.495 487.593 157.217 487.805C151.081 492.435 153.352 500.076 158.101 500.595C161.624 500.986 162.299 500.784 165.254 499.624C169.823 497.842 170.276 497.559 170.868 498.431C172.366 500.666 167.437 502.891 164.912 504.036C162.17 505.286 159.585 506.46 160.163 508.911C160.921 512.098 164.486 510.467 166.909 509.581C167.289 510.698 168.44 511.909 169.753 511.909C171.27 511.909 172.31 510.396 171.991 508.883C171.691 507.398 172.694 506.912 174.326 505.14C176.602 502.679 177.332 499.398 176.236 496.583H176.25Z" fill="#3FA34D"/>
</svg>
